<?xml version="1.0" encoding="UTF-8" standalone="no"?>
<svg
   id="Warstwa_1"
   version="1.1"
   viewBox="0 0 168060 28366.416"
   width="168060"
   height="28366.416"
   xmlns="http://www.w3.org/2000/svg"
   xmlns:svg="http://www.w3.org/2000/svg">
  <!-- Generator: Adobe Illustrator 29.8.4, SVG Export Plug-In . SVG Version: 2.1.1 Build 6)  -->
  <defs
     id="defs1">
    <style
       id="style1">
      .st0 {
        font-family: Corbel-BoldItalic, Corbel;
        font-style: italic;
        letter-spacing: .08em;
      }

      .st1 {
        fill: #ff2a00;
        font-family: LucidaConsole, 'Lucida Console';
        font-size: 25.57px;
        letter-spacing: .53em;
      }

      .st2 {
        font-size: 91.89px;
        font-weight: 700;
      }

      .st2, .st3 {
        fill: #ff3000;
      }

      .st4 {
        font-family: Corbel-Bold, Corbel;
      }
    </style>
  </defs>
  <text
     class="st2"
     id="text3"
     x="-66522.594"
     y="-28828.236"><tspan
       class="st4"
       x="-66522.594"
       y="-28828.236"
       id="tspan1">DR</tspan><tspan
       class="st0"
       x="-66401.578"
       y="-28828.236"
       xml:space="preserve"
       id="tspan2">   </tspan><tspan
       class="st4"
       x="-66324.094"
       y="-28828.236"
       id="tspan3">NE</tspan></text>
  <g
     id="g6"
     transform="translate(-66636.696,-29000.707)">
    <path
       class="st3"
       d="m 277.69,167.1 17.73,-41.15 c 0.7,-1.24 1.73,-2.43 3.14,-2.84 -1.42,-2.61 -3.87,-5.08 -6.23,-6.91 -13.16,-10.22 -32.25,-7.22 -41.71,6.39 -10.58,15.21 -4.25,36.09 12.47,43.41 l 3.27,7.32 c -11.3,-2.38 -20.8,-11.05 -24.82,-21.79 -2.81,-7.48 -3.02,-15.99 -0.37,-23.55 l -9.23,-2.07 c -0.74,-0.83 -0.82,-3.09 0.55,-3.27 l 10.82,-0.02 c 2.56,-3.09 4.47,-6.72 7.44,-9.45 10.09,-9.29 25.22,-11.75 37.83,-6.27 7.35,3.2 13.14,8.82 17.1,15.73 l 10.82,0.02 c 1.36,0.18 1.29,2.44 0.55,3.27 -6.12,1.21 -13.77,2.01 -17.5,7.68 -5.09,10.33 -9.42,21.04 -14.23,31.51 -0.54,0.66 -7.22,2.37 -7.63,2.01 z"
       id="path3" />
    <path
       class="st3"
       d="m 251.16,123.44 c 1.12,0.52 1.86,1.57 2.49,2.6 l 18.24,42 c 8.93,1.08 18.23,-2.76 24.2,-9.37 6.64,-7.35 8.93,-17.49 6.54,-27.1 0.24,-0.63 4.37,-2.59 5.13,-2.67 0.2,-0.02 0.3,-0.06 0.44,0.13 0.17,0.24 0.56,2.08 0.67,2.52 4.38,19.19 -8.32,38.25 -27.36,42.19 l -4.11,9.27 c -1.41,2.23 -4.56,2.23 -5.83,-0.13 l -21.15,-47.69 c -0.81,-1.42 -1.72,-2.8 -2.93,-3.92 0.75,-2.78 2,-5.46 3.68,-7.81 z"
       id="path4" />
    <path
       class="st3"
       d="m 252.03,122.65 c 0.62,0.51 1.38,1.24 2.09,2.23 0.9,1.24 1.4,2.44 1.68,3.3 2.97,-0.72 5.93,-1.45 8.9,-2.17 0,0 1.74,-1.3 0,-3.36 z"
       id="path5" />
    <path
       class="st3"
       d="m 297.05,122.65 c -0.62,0.51 -1.38,1.24 -2.09,2.23 -0.9,1.24 -1.4,2.44 -1.68,3.3 -2.97,-0.72 -5.93,-1.45 -8.9,-2.17 0,0 -1.74,-1.3 0,-3.36 z"
       id="path6" />
  </g>
  <text
     class="st1"
     id="text6"
     x="-66515.414"
     y="-28795.336"><tspan
       x="-66515.414"
       y="-28795.336"
       id="tspan6">ENGINEERING</tspan></text>
</svg>
