<?xml version="1.0" encoding="UTF-8" standalone="no"?>
<svg
   id="Warstwa_1"
   version="1.1"
   viewBox="0 0 168060 28366.416"
   width="168060"
   height="28366.416"
   xmlns="http://www.w3.org/2000/svg"
   xmlns:svg="http://www.w3.org/2000/svg">
  <!-- Generator: Adobe Illustrator 29.8.4, SVG Export Plug-In . SVG Version: 2.1.1 Build 6)  -->
  <defs
     id="defs1">
    <style
       id="style1">
      .st0 {
        font-family: Corbel-BoldItalic, Corbel;
        font-style: italic;
        letter-spacing: .08em;
      }

      .st1 {
        fill: #ff2a00;
        font-family: LucidaConsole, 'Lucida Console';
        font-size: 25.57px;
        letter-spacing: .53em;
      }

      .st2 {
        font-size: 91.89px;
        font-weight: 700;
      }

      .st2, .st3 {
        fill: #ff3000;
      }

      .st4 {
        font-family: Corbel-Bold, Corbel;
      }
    </style>
  </defs>
  <g
     id="text3"
     class="st2"
     style="font-weight:700;font-size:91.89px;fill:#ff3000"
     transform="translate(-66522.596,-28828.237)"
     aria-label="DR   NE">
    <path
       style="font-family:Corbel-Bold, Corbel"
       d="M 7.1789062,0 V -60.033603 H 23.062236 q 2.108804,0 4.262476,0.134604 2.19854,0.134605 4.262475,0.403814 2.063936,0.269209 3.993267,0.673022 1.929331,0.358946 3.544585,0.897364 4.800893,1.525517 8.480083,4.127871 3.679189,2.602353 6.146938,6.146938 2.512617,3.544585 3.768926,7.941665 1.301177,4.352212 1.301177,9.467183 0,4.845761 -1.076836,9.108237 -1.076836,4.217607 -3.275376,7.717324 -2.19854,3.4997168 -5.563652,6.1918066 -3.320245,2.6472217 -7.896797,4.3522119 -3.813794,1.4357813 -8.659556,2.15367188 Q 27.504184,0 21.446982,0 Z M 22.703291,-9.1979736 q 9.646655,0 15.075703,-2.6472214 4.800893,-2.378013 7.268642,-6.909697 2.467749,-4.531685 2.467749,-11.575987 0,-3.679189 -0.807627,-6.640488 -0.807626,-2.961299 -2.333144,-5.249575 -1.525518,-2.333145 -3.724058,-3.993267 -2.153671,-1.660122 -4.890629,-2.736958 -2.557486,-0.987099 -5.698257,-1.435781 -3.140772,-0.448682 -7.044302,-0.448682 H 18.171606 V -9.1979736 Z M 114.90737,-41.996601 q 0,6.281543 -3.49972,10.678623 -3.45485,4.352212 -10.72349,6.461015 v 0.179473 L 118.54169,0 H 105.35045 L 89.018437,-23.241709 H 81.480585 V 0 h -10.9927 v -60.033603 h 18.261343 q 4.531684,0 8.435215,0.538418 3.903527,0.49355 6.685357,1.525517 5.29444,2.019068 8.166,6.012334 2.87157,3.948399 2.87157,9.960733 z m -27.997737,9.556919 q 3.768926,0 6.371279,-0.314078 2.647222,-0.358945 4.441949,-1.031967 3.320239,-1.256309 4.576549,-3.409981 1.30118,-2.19854 1.30118,-5.025234 0,-2.422881 -1.03197,-4.262476 -0.9871,-1.884463 -3.409978,-2.961298 -1.570386,-0.717891 -3.948399,-1.031968 -2.378012,-0.358946 -5.877729,-0.358946 h -7.851929 v 18.395948 z"
       id="path7" />
    <path
       style="font-family:Corbel-Bold, Corbel"
       d="m 236.95202,-32.125605 q 6.46101,9.197973 10.49915,16.332011 h 0.26921 q -0.53842,-11.71059 -0.53842,-17.049902 v -27.190107 h 10.9927 V 0 h -11.53112 l -19.56252,-27.638789 q -5.15984,-7.178906 -10.67862,-16.646089 h -0.26921 q 0.53842,11.037569 0.53842,17.094771 V 0 h -10.9927 v -60.033603 h 11.53111 z m 46.57315,22.9276314 h 29.52325 V 0 h -40.51595 v -60.033603 h 38.9007 v 9.197973 h -27.908 v 15.524385 h 23.9596 v 9.197974 h -23.9596 z"
       id="path8" />
  </g>
  <g
     id="g6"
     transform="translate(-66636.696,-29000.707)">
    <path
       class="st3"
       d="m 277.69,167.1 17.73,-41.15 c 0.7,-1.24 1.73,-2.43 3.14,-2.84 -1.42,-2.61 -3.87,-5.08 -6.23,-6.91 -13.16,-10.22 -32.25,-7.22 -41.71,6.39 -10.58,15.21 -4.25,36.09 12.47,43.41 l 3.27,7.32 c -11.3,-2.38 -20.8,-11.05 -24.82,-21.79 -2.81,-7.48 -3.02,-15.99 -0.37,-23.55 l -9.23,-2.07 c -0.74,-0.83 -0.82,-3.09 0.55,-3.27 l 10.82,-0.02 c 2.56,-3.09 4.47,-6.72 7.44,-9.45 10.09,-9.29 25.22,-11.75 37.83,-6.27 7.35,3.2 13.14,8.82 17.1,15.73 l 10.82,0.02 c 1.36,0.18 1.29,2.44 0.55,3.27 -6.12,1.21 -13.77,2.01 -17.5,7.68 -5.09,10.33 -9.42,21.04 -14.23,31.51 -0.54,0.66 -7.22,2.37 -7.63,2.01 z"
       id="path3" />
    <path
       class="st3"
       d="m 251.16,123.44 c 1.12,0.52 1.86,1.57 2.49,2.6 l 18.24,42 c 8.93,1.08 18.23,-2.76 24.2,-9.37 6.64,-7.35 8.93,-17.49 6.54,-27.1 0.24,-0.63 4.37,-2.59 5.13,-2.67 0.2,-0.02 0.3,-0.06 0.44,0.13 0.17,0.24 0.56,2.08 0.67,2.52 4.38,19.19 -8.32,38.25 -27.36,42.19 l -4.11,9.27 c -1.41,2.23 -4.56,2.23 -5.83,-0.13 l -21.15,-47.69 c -0.81,-1.42 -1.72,-2.8 -2.93,-3.92 0.75,-2.78 2,-5.46 3.68,-7.81 z"
       id="path4" />
    <path
       class="st3"
       d="m 252.03,122.65 c 0.62,0.51 1.38,1.24 2.09,2.23 0.9,1.24 1.4,2.44 1.68,3.3 2.97,-0.72 5.93,-1.45 8.9,-2.17 0,0 1.74,-1.3 0,-3.36 z"
       id="path5" />
    <path
       class="st3"
       d="m 297.05,122.65 c -0.62,0.51 -1.38,1.24 -2.09,2.23 -0.9,1.24 -1.4,2.44 -1.68,3.3 -2.97,-0.72 -5.93,-1.45 -8.9,-2.17 0,0 -1.74,-1.3 0,-3.36 z"
       id="path6" />
  </g>
  <path
     d="m -66512.719,-28795.337 v -16.018 h 10.825 v 1.847 h -8.365 v 4.857 h 7.091 v 1.848 h -7.091 v 5.618 h 8.939 v 1.848 z m 28.11,0 v -16.068 h 2.322 l 7.354,11.648 h 0.02 v -11.598 h 2.01 v 16.018 h -2.272 l -7.404,-11.736 h -0.04 v 11.736 z m 41.007,-15.681 v 2.259 q -2.472,-1.136 -4.619,-1.136 -2.485,0 -4.095,1.823 -1.598,1.823 -1.598,4.645 0,2.834 1.81,4.657 1.81,1.81 4.62,1.81 0.636,0 1.623,-0.15 v -4.232 h -3.009 v -1.848 h 5.468 v 7.441 q -2.509,0.799 -4.757,0.799 -3.72,0 -6.055,-2.31 -2.322,-2.309 -2.322,-6.005 0,-3.783 2.322,-6.13 2.322,-2.348 6.068,-2.348 2.122,0 4.544,0.725 z m 17.223,15.681 v -1.848 h 4.308 v -12.323 h -4.308 v -1.847 h 11.087 v 1.847 h -4.307 v 12.323 h 4.307 v 1.848 z m 28.647,0 v -16.068 h 2.322 l 7.354,11.648 h 0.02 v -11.598 h 2.01 v 16.018 h -2.272 l -7.404,-11.736 h -0.04 v 11.736 z m 29.808,0 v -16.018 h 10.825 v 1.847 h -8.365 v 4.857 h 7.091 v 1.848 h -7.091 v 5.618 h 8.939 v 1.848 z m 28.959,0 v -16.018 h 10.825 v 1.847 h -8.365 v 4.857 h 7.091 v 1.848 h -7.091 v 5.618 h 8.939 v 1.848 z m 28.56,0 v -16.018 h 4.482 q 2.797,0 3.883,0.461 2.322,0.962 2.322,3.396 0,1.674 -0.836,2.797 -0.837,1.111 -2.797,2.073 l 5.668,7.291 h -2.984 l -5.056,-6.667 h -2.223 v 6.667 z m 2.459,-8.527 h 1.299 q 1.985,0 3.146,-0.874 1.161,-0.874 1.161,-2.36 0,-1.386 -0.874,-1.898 -0.874,-0.512 -3.221,-0.512 h -1.511 z m 26.362,8.527 v -1.848 h 4.308 v -12.323 h -4.308 v -1.847 h 11.087 v 1.847 h -4.307 v 12.323 h 4.307 v 1.848 z m 28.647,0 v -16.068 h 2.323 l 7.353,11.648 h 0.03 v -11.598 h 2.011 v 16.018 h -2.273 l -7.404,-11.736 h -0.04 v 11.736 z m 41.008,-15.681 v 2.259 q -2.472,-1.136 -4.62,-1.136 -2.485,0 -4.095,1.823 -1.598,1.823 -1.598,4.645 0,2.834 1.81,4.657 1.81,1.81 4.62,1.81 0.636,0 1.623,-0.15 v -4.232 h -3.009 v -1.848 h 5.468 v 7.441 q -2.509,0.799 -4.757,0.799 -3.72,0 -6.055,-2.31 -2.322,-2.309 -2.322,-6.005 0,-3.783 2.322,-6.13 2.322,-2.348 6.068,-2.348 2.122,0 4.545,0.725 z"
     id="text6"
     class="st1"
     style="font-size:25.57px;font-family:LucidaConsole, 'Lucida Console';letter-spacing:0.53em;fill:#ff2a00"
     aria-label="ENGINEERING" />
</svg>
