<svg version="1.2" xmlns="http://www.w3.org/2000/svg" viewBox="0 0 491 158" width="491" height="158">
	<style>
		tspan { white-space:pre } 
		.t0 { font-size: 137px;fill: #000000;font-weight: bold;font-family: "Corbel" } 
		.t1 { font-size: 137px;fill: #000000;font-weight: bold;font-style: italic;font-family: "Corbel" } 
		.s2 { fill: #000000 } 
		.t3 { font-size: 38px;fill: #000000;font-family: "Lucida Console" } 
	</style>
	<g>
		<text id="DR" style="transform: matrix(1,0,0,1,-7.11,104.98)" >
			<tspan x="0" y="0" class="t0">DR
</tspan>
		</text>
		<text id="   " style="transform: matrix(1,0,0,1,173.48,104.98)" >
			<tspan x="0" y="0" class="t1">   
</tspan>
		</text>
		<text id="NE" style="transform: matrix(1,0,0,1,289.1,104.98)" >
			<tspan x="0" y="0" class="t0">NE
</tspan>
		</text>
	</g>
	<g>
		<path class="s2" d="m237 96.96l26.46-61.41c1.04-1.85 2.58-3.63 4.69-4.23-2.11-3.89-5.78-7.58-9.3-10.32-19.64-15.25-48.13-10.77-62.24 9.53-15.78 22.7-6.34 53.86 18.61 64.77l4.89 10.93c-16.86-3.56-31.03-16.5-37.04-32.52-4.19-11.17-4.51-23.86-0.54-35.14l-13.78-3.09c-1.1-1.23-1.22-4.62 0.82-4.88l16.14-0.03c3.82-4.61 6.67-10.03 11.1-14.11 15.06-13.87 37.64-17.54 56.45-9.36 10.97 4.77 19.61 13.16 25.52 23.47l16.15 0.03c2.03 0.27 1.92 3.65 0.82 4.88-9.14 1.8-20.54 3-26.11 11.47-7.6 15.41-14.06 31.4-21.24 47.02-0.81 0.99-10.77 3.54-11.39 3z"/>
		<path class="s2" d="m197.42 31.81c1.68 0.78 2.78 2.35 3.71 3.88l27.23 62.67c13.33 1.61 27.2-4.12 36.11-13.99 9.91-10.97 13.32-26.1 9.76-40.44 0.35-0.94 6.53-3.86 7.66-3.99 0.3-0.03 0.45-0.09 0.66 0.2 0.25 0.36 0.84 3.1 0.99 3.76 6.54 28.63-12.41 57.08-40.83 62.95l-6.14 13.84c-2.1 3.33-6.8 3.32-8.7-0.2l-31.57-71.17c-1.21-2.12-2.56-4.18-4.37-5.85 1.12-4.15 2.98-8.15 5.49-11.66z"/>
		<path class="s2" d="m198.72 30.64c0.92 0.76 2.05 1.85 3.13 3.33 1.34 1.86 2.08 3.64 2.5 4.93q6.64-1.62 13.27-3.24c0 0 2.59-1.94 0-5.02z"/>
		<path class="s2" d="m265.9 30.64c-0.92 0.76-2.05 1.85-3.13 3.33-1.34 1.86-2.08 3.64-2.5 4.93q-6.64-1.62-13.27-3.24c0 0-2.59-1.94 0-5.02z"/>
	</g>
	<text id="ENGINEERING" style="transform: matrix(1,0,0,1,3.6,154.08)" >
		<tspan x="0" y="0" class="t3">ENGINEERING
</tspan>
	</text>
</svg>